<?xml version="1.0" encoding="UTF-8"?>
<svg id="Layer_2" data-name="Layer 2" xmlns="http://www.w3.org/2000/svg" viewBox="0 0 5649.68 3103.26">
  <defs>
    <style>
      .cls-1 {
        fill: #5bbc9d;
      }
    </style>
  </defs>
  <path class="cls-1" d="M2875.59,1373.67c.95,1.09,2.49,1.45,3.87,1.61,79.23,9.08,127.43,89.1,107.49,165.6-1.75,6.73-4.49,13.28-6.7,19.85h-44.23l88.63,95.3h-57.73l-20.86-22.28-1.41-2.84-12.17-12.15c-9.23,3.23-16.32,8.36-25.57,11.6-8.83,3.08-15.82,3.51-24.1,5.39-.68.15-.22,1.53-1.79,1.74-66.5,8.71-129.64-28.69-147.6-93.71-20.99-76.02,23.77-153.61,101.16-168.25,3.57-.68,7.86.26,11.24-1.88h29.75ZM2863.6,1546.62h57.1c4.69,3.01,8.14,9.68,12.24,12.99.57.46.4.91,1.71.52,4.05-9.23,9.11-17.78,11.63-27.67,17.3-67.72-34.01-130.11-105.29-116.1-59,11.59-85.17,75.82-62.71,129.72,19.16,45.96,74.27,65.02,119.01,44.56,1.39-.64,3.68-.94,5.22-1.81l-38.91-42.21Z"/>
  <path class="cls-1" d="M3619.86,1545.09c-5.77,66.58-71.92,108.91-135.32,89.07-86.86-27.18-96.41-153.09-16.23-193.71,65.32-33.09,145.17,8.55,151.55,82.68.51,5.88.51,16.08,0,21.96ZM3550.97,1479.59c-32.77-21.53-76.22-9.12-90.79,27.27-19.64,49.03,17.64,103.78,72.08,90.54,51.96-12.63,61.98-89.39,18.72-117.81Z"/>
  <path class="cls-1" d="M3063.72,1433.67v126.26c0,.69,1.74,9.22,2.07,10.6,6.31,26.17,32.14,32.96,56.34,26.78,25.14-6.42,35.83-30.98,36.89-55.12v-108.52h42.35v201.19h-42.35v-30.43l-2.65.53c-6.56,11.71-18.81,22.14-31.19,27.66-25.66,11.44-67.32,8.27-86.25-13.65-18.43-21.34-19.24-42.22-19.98-69.02-1.08-38.69.89-77.57.04-116.27h44.73Z"/>
  <polygon class="cls-1" points="3265.39 1433.67 3315.34 1573.15 3364.45 1433.67 3408.25 1433.67 3358.17 1574.86 3316.02 1574.86 3336.63 1634.86 3292.49 1634.86 3221.36 1433.67 3265.39 1433.67"/>
</svg>